<svg xmlns="http://www.w3.org/2000/svg" version="1.1" xmlns:xlink="http://www.w3.org/1999/xlink" width="1000" height="1000"><style>
    #light-icon {
      display: inline;
    }
    #dark-icon {
      display: none;
    }

    @media (prefers-color-scheme: dark) {
      #light-icon {
        display: none;
      }
      #dark-icon {
        display: inline;
      }
    }
  </style><g id="light-icon"><svg xmlns="http://www.w3.org/2000/svg" version="1.1" xmlns:xlink="http://www.w3.org/1999/xlink" width="1000" height="1000"><g><g transform="matrix(2.197802197802198,0,0,2.197802197802198,60.43956043956041,-5.684341886080802e-14)"><svg xmlns="http://www.w3.org/2000/svg" version="1.1" xmlns:xlink="http://www.w3.org/1999/xlink" width="400" height="455"><svg width="400" height="455" viewBox="0 0 400 455" fill="none" xmlns="http://www.w3.org/2000/svg">
<path d="M207.959 139.29C207.263 123.504 203.781 111.664 197.283 103.307C190.784 95.1816 178.947 90.3064 162.004 88.9135C156.898 92.3958 150.399 104.468 142.276 124.897C134.152 145.326 128.814 166.916 126.725 189.667C119.53 224.025 116.049 258.383 116.049 292.509C116.745 327.564 122.547 353.333 133.224 369.583C134.616 372.369 136.009 373.53 137.402 372.833C140.883 372.833 146.685 365.637 154.577 351.475C192.176 282.759 210.048 212.185 207.959 139.29ZM241.149 344.047L225.134 385.834C225.134 387.226 214.69 402.548 194.033 432.031C187.534 445.728 175.698 453.157 158.058 454.55C140.651 455.943 123.476 454.086 107.229 449.211C85.1797 441.317 68.2366 432.031 56.8638 421.353C45.491 410.674 34.1183 392.566 23.2097 367.262C12.0691 341.957 6.26662 321.064 5.57033 304.581C1.85678 280.67 0 265.58 0 259.312V233.543C0 207.774 1.16049 192.917 3.24936 188.506C3.94565 185.72 5.80243 178.059 8.58759 165.987C12.0691 136.04 20.6566 107.486 34.3504 80.324C60.8095 28.0902 87.9648 1.3929 115.816 0H121.155C122.547 0.69645 124.636 1.16075 127.653 1.16075H141.579C166.646 3.2501 181.964 5.33946 187.767 7.66096C198.443 10.4468 207.727 11.8397 215.618 11.8397L243.47 17.1791C252.058 16.4827 263.198 18.3399 277.124 22.5186C291.05 26.6973 298.477 29.9474 299.637 32.2689C300.798 34.3582 302.655 42.2513 305.44 55.9482C308.225 69.6451 310.314 79.3954 311.242 85.4313C312.403 91.4672 313.099 97.7352 314.027 104.235C319.83 156.469 329.114 204.989 341.879 250.026C342.575 252.115 343.272 255.365 343.968 259.776C344.664 263.955 347.217 272.544 351.395 284.848C355.573 297.384 358.822 307.831 361.143 316.421C363.232 325.01 367.178 336.386 372.98 350.779C377.158 361.458 383.657 373.994 392.244 388.387C408.027 410.674 399.671 427.621 367.642 439.925C363.464 441.317 355.805 442.014 345.128 442.014C343.04 442.014 336.077 438.532 324.704 431.335C317.509 431.335 310.778 427.388 304.279 419.495L295.692 417.406C290.586 412.299 286.408 409.977 282.926 409.977C281.534 408.584 268.536 379.565 244.398 323.153C242.309 330.35 241.149 337.546 241.149 344.047Z" fill="#964F4C"></path>
</svg></svg></g></g></svg></g><g id="dark-icon"><svg xmlns="http://www.w3.org/2000/svg" version="1.1" xmlns:xlink="http://www.w3.org/1999/xlink" width="1000" height="1000"><g clip-path="url(#SvgjsClipPath1023)"><rect width="1000" height="1000" fill="#ffffff"></rect><g transform="matrix(1.5384615384615385,0,0,1.5384615384615385,192.30769230769226,150)"><svg xmlns="http://www.w3.org/2000/svg" version="1.1" xmlns:xlink="http://www.w3.org/1999/xlink" width="400" height="455"><svg width="400" height="455" viewBox="0 0 400 455" fill="none" xmlns="http://www.w3.org/2000/svg">
<path d="M207.959 139.29C207.263 123.504 203.781 111.664 197.283 103.307C190.784 95.1816 178.947 90.3064 162.004 88.9135C156.898 92.3958 150.399 104.468 142.276 124.897C134.152 145.326 128.814 166.916 126.725 189.667C119.53 224.025 116.049 258.383 116.049 292.509C116.745 327.564 122.547 353.333 133.224 369.583C134.616 372.369 136.009 373.53 137.402 372.833C140.883 372.833 146.685 365.637 154.577 351.475C192.176 282.759 210.048 212.185 207.959 139.29ZM241.149 344.047L225.134 385.834C225.134 387.226 214.69 402.548 194.033 432.031C187.534 445.728 175.698 453.157 158.058 454.55C140.651 455.943 123.476 454.086 107.229 449.211C85.1797 441.317 68.2366 432.031 56.8638 421.353C45.491 410.674 34.1183 392.566 23.2097 367.262C12.0691 341.957 6.26662 321.064 5.57033 304.581C1.85678 280.67 0 265.58 0 259.312V233.543C0 207.774 1.16049 192.917 3.24936 188.506C3.94565 185.72 5.80243 178.059 8.58759 165.987C12.0691 136.04 20.6566 107.486 34.3504 80.324C60.8095 28.0902 87.9648 1.3929 115.816 0H121.155C122.547 0.69645 124.636 1.16075 127.653 1.16075H141.579C166.646 3.2501 181.964 5.33946 187.767 7.66096C198.443 10.4468 207.727 11.8397 215.618 11.8397L243.47 17.1791C252.058 16.4827 263.198 18.3399 277.124 22.5186C291.05 26.6973 298.477 29.9474 299.637 32.2689C300.798 34.3582 302.655 42.2513 305.44 55.9482C308.225 69.6451 310.314 79.3954 311.242 85.4313C312.403 91.4672 313.099 97.7352 314.027 104.235C319.83 156.469 329.114 204.989 341.879 250.026C342.575 252.115 343.272 255.365 343.968 259.776C344.664 263.955 347.217 272.544 351.395 284.848C355.573 297.384 358.822 307.831 361.143 316.421C363.232 325.01 367.178 336.386 372.98 350.779C377.158 361.458 383.657 373.994 392.244 388.387C408.027 410.674 399.671 427.621 367.642 439.925C363.464 441.317 355.805 442.014 345.128 442.014C343.04 442.014 336.077 438.532 324.704 431.335C317.509 431.335 310.778 427.388 304.279 419.495L295.692 417.406C290.586 412.299 286.408 409.977 282.926 409.977C281.534 408.584 268.536 379.565 244.398 323.153C242.309 330.35 241.149 337.546 241.149 344.047Z" fill="#964F4C"></path>
</svg></svg></g></g><defs><clipPath id="SvgjsClipPath1023"><rect width="1000" height="1000" x="0" y="0" rx="150" ry="150"></rect></clipPath></defs></svg></g></svg>